<svg xmlns="http://www.w3.org/2000/svg" viewBox="0 0 32 32" width="32" height="32">
  <defs>
    <linearGradient id="grad1" x1="0%" y1="0%" x2="100%" y2="100%">
      <stop offset="0%" style="stop-color:#3B82F6;stop-opacity:1" />
      <stop offset="100%" style="stop-color:#1D4ED8;stop-opacity:1" />
    </linearGradient>
  </defs>
  
  <!-- Background circle -->
  <circle cx="16" cy="16" r="15" fill="url(#grad1)" stroke="#1E40AF" stroke-width="1"/>
  
  <!-- Spider web / Crawl icon -->
  <g fill="white" stroke="white" stroke-width="0.5">
    <!-- Center dot -->
    <circle cx="16" cy="16" r="1.5"/>
    
    <!-- Web lines -->
    <line x1="16" y1="8" x2="16" y2="24" stroke-width="1"/>
    <line x1="8" y1="16" x2="24" y2="16" stroke-width="1"/>
    <line x1="10" y1="10" x2="22" y2="22" stroke-width="1"/>
    <line x1="22" y1="10" x2="10" y2="22" stroke-width="1"/>
    
    <!-- Outer circles -->
    <circle cx="16" cy="8" r="1"/>
    <circle cx="16" cy="24" r="1"/>
    <circle cx="8" cy="16" r="1"/>
    <circle cx="24" cy="16" r="1"/>
    <circle cx="10" cy="10" r="1"/>
    <circle cx="22" cy="22" r="1"/>
    <circle cx="22" cy="10" r="1"/>
    <circle cx="10" cy="22" r="1"/>
  </g>
  
  <!-- Data dots -->
  <g fill="#FBBF24">
    <circle cx="12" cy="12" r="0.8"/>
    <circle cx="20" cy="20" r="0.8"/>
    <circle cx="20" cy="12" r="0.8"/>
    <circle cx="12" cy="20" r="0.8"/>
  </g>
</svg>
